<?xml version="1.0" standalone="no"?>
<!DOCTYPE svg PUBLIC "-//W3C//DTD SVG 20010904//EN"
 "http://www.w3.org/TR/2001/REC-SVG-20010904/DTD/svg10.dtd">
<svg version="1.0" xmlns="http://www.w3.org/2000/svg"
 width="1024.000000pt" height="1024.000000pt" viewBox="0 0 1024.000000 1024.000000"
 preserveAspectRatio="xMidYMid meet">

<g transform="translate(0.000000,1024.000000) scale(0.100000,-0.100000)"
fill="#000000" stroke="none">
<path d="M5055 9088 c-231 -44 -389 -277 -354 -523 19 -140 115 -273 239 -332
l59 -28 0 -632 1 -631 -62 -7 c-35 -4 -67 -8 -72 -8 -4 -1 -10 27 -12 63 -3
36 -9 77 -15 91 -23 58 -124 79 -175 36 -30 -26 -42 -80 -43 -189 -1 -51 -5
-68 -15 -68 -7 0 -45 -10 -84 -23 -59 -19 -72 -21 -77 -9 -3 7 -5 236 -5 507
l0 493 -27 34 c-15 18 -71 78 -125 134 -54 56 -98 103 -98 106 0 2 11 27 24
54 34 71 46 120 46 194 -1 126 -42 230 -125 315 -92 95 -189 135 -325 135
-138 0 -242 -44 -334 -140 -61 -64 -90 -114 -111 -197 -59 -226 63 -456 290
-543 48 -19 79 -23 155 -23 52 0 107 5 121 11 25 10 30 7 65 -31 20 -23 62
-68 92 -99 l56 -57 -3 -378 -2 -378 26 -49 c23 -42 26 -58 21 -105 -3 -31 -5
-76 -6 -101 -1 -44 -2 -46 -56 -79 l-56 -33 -74 73 -74 73 0 151 c0 120 -3
155 -15 173 -9 12 -62 54 -118 93 -189 133 -395 290 -401 305 -3 9 -6 78 -6
154 0 76 -4 150 -10 164 -16 42 -76 101 -128 125 -40 19 -60 38 -97 92 -87
127 -154 168 -243 148 -65 -14 -95 -33 -127 -80 -24 -33 -30 -55 -33 -108 -3
-59 -1 -70 25 -106 15 -23 65 -75 109 -117 79 -74 83 -77 143 -84 34 -4 65
-12 69 -18 4 -6 7 -76 7 -156 1 -171 -4 -160 124 -267 47 -39 135 -112 194
-162 78 -66 120 -94 151 -102 54 -13 56 -18 56 -174 l0 -119 63 -61 c35 -33
90 -83 122 -112 l60 -51 -39 -41 -40 -40 -50 46 c-28 26 -133 125 -233 220
-159 152 -189 176 -233 189 -29 8 -67 30 -86 47 -35 31 -35 34 -41 130 -8 125
-18 139 -195 282 -178 143 -183 145 -312 145 -97 0 -106 2 -120 22 -24 34 -19
55 24 101 21 24 44 56 50 71 37 99 -34 227 -142 257 -108 29 -224 -42 -247
-149 -14 -65 -15 -314 -1 -361 22 -77 95 -149 207 -205 45 -23 63 -26 156 -26
l105 0 86 -82 87 -83 8 -92 c7 -77 13 -100 35 -132 33 -48 179 -165 238 -191
24 -10 53 -29 65 -42 12 -13 112 -99 221 -193 l200 -170 -40 -57 -40 -57 -52
38 c-97 73 -139 85 -200 56 -41 -20 -66 -62 -66 -113 0 -54 26 -83 121 -134
124 -67 114 -73 -130 -73 l-204 0 -119 165 c-137 191 -179 237 -228 250 -19 5
-121 10 -226 10 l-191 0 -5 80 c-4 66 -11 92 -41 152 -57 115 -150 200 -263
238 -193 67 -400 2 -515 -162 -162 -231 -89 -544 158 -675 151 -81 334 -64
485 44 l46 33 223 -2 223 -3 128 -180 c70 -99 141 -192 158 -207 l30 -28 231
0 231 0 -7 -46 c-11 -77 -7 -74 -117 -74 -66 0 -108 -5 -126 -14 -74 -38 -74
-164 0 -202 17 -9 59 -14 118 -14 l91 0 -3 -57 -3 -58 -584 0 -583 0 -22 61
c-74 203 -226 314 -432 314 -126 0 -219 -38 -317 -130 -108 -100 -157 -244
-137 -394 35 -248 281 -428 528 -387 124 21 253 104 312 200 l25 40 620 1 621
0 29 -117 c17 -65 31 -123 33 -129 1 -6 -32 -39 -75 -74 -43 -35 -152 -127
-243 -205 -91 -77 -178 -151 -194 -163 -28 -22 -32 -22 -400 -22 l-371 0 -80
40 c-141 71 -280 75 -415 12 -69 -32 -178 -140 -208 -205 -90 -193 -57 -396
86 -536 182 -177 448 -175 630 5 92 92 124 166 130 301 l5 103 368 0 368 0
208 183 c247 216 312 271 318 266 8 -8 75 -123 75 -129 0 -3 -29 -23 -65 -45
-82 -50 -110 -90 -102 -148 8 -58 61 -107 116 -107 36 0 66 16 176 94 9 7 28
-6 67 -48 29 -32 55 -63 56 -68 2 -5 -40 -51 -95 -102 l-98 -93 -5 -154 -5
-153 -58 -12 c-87 -17 -127 -64 -127 -149 0 -38 6 -52 34 -83 l34 -37 120 0
119 0 47 37 c26 20 66 58 89 84 l42 48 3 165 3 166 38 35 c87 80 75 76 118 43
21 -16 55 -40 76 -52 l37 -23 0 -107 c0 -88 -4 -114 -21 -146 -19 -38 -21 -61
-26 -455 l-5 -414 -72 -68 c-58 -56 -75 -67 -96 -63 -14 3 -58 11 -98 17 -288
47 -543 -195 -519 -492 20 -249 267 -439 516 -399 291 46 463 337 357 601
l-25 62 103 100 c57 56 111 112 120 126 13 22 16 93 16 563 1 497 2 537 18
536 9 -1 51 -13 92 -28 l75 -26 5 -103 c5 -98 6 -105 33 -128 33 -28 92 -32
137 -9 39 20 46 36 55 119 l7 68 36 -6 c21 -3 52 -6 70 -6 l32 0 0 -389 c0
-386 0 -388 23 -422 12 -19 39 -42 60 -53 33 -16 44 -17 83 -7 61 16 89 35
108 76 14 28 16 87 16 413 l0 379 53 7 c90 10 87 12 87 -46 0 -62 24 -117 60
-136 42 -22 110 -9 142 27 26 29 28 37 28 121 0 60 4 91 13 97 11 7 165 63
174 63 1 0 3 -244 3 -543 0 -486 2 -545 16 -567 9 -14 62 -71 117 -127 l100
-101 -24 -59 c-20 -49 -24 -75 -24 -168 0 -102 2 -115 31 -175 138 -292 511
-355 740 -126 142 143 173 347 78 527 -97 184 -306 276 -507 224 -32 -8 -63
-15 -70 -15 -7 0 -47 34 -89 75 l-78 74 0 413 c0 395 -1 414 -20 443 -17 26
-20 47 -20 146 l0 116 70 47 71 47 62 -56 62 -56 5 -178 c6 -208 -12 -173 187
-361 156 -147 199 -174 262 -166 88 12 150 66 173 149 18 68 -6 118 -95 205
-64 61 -82 73 -144 92 -84 25 -83 22 -83 205 0 142 6 130 -127 258 -46 44 -83
84 -83 89 0 15 92 118 105 118 7 0 20 -10 31 -21 10 -12 37 -35 58 -50 76 -56
176 -27 206 59 13 39 13 45 -5 79 -12 22 -45 53 -87 81 l-68 45 27 46 c51 88
42 84 88 44 22 -20 83 -75 135 -123 222 -202 257 -233 286 -256 l30 -23 386
-1 386 -1 4 -103 c3 -95 6 -109 41 -178 40 -82 125 -171 197 -208 202 -103
458 -36 583 153 153 230 69 540 -179 665 -141 71 -308 64 -437 -18 l-48 -30
-399 0 -399 0 -243 216 c-134 119 -247 219 -251 224 -4 4 1 40 12 81 11 41 25
100 31 132 l11 57 619 0 619 0 30 -44 c99 -143 287 -225 451 -196 216 39 375
210 397 425 21 206 -141 427 -348 474 -62 15 -165 13 -226 -3 -159 -42 -263
-145 -318 -314 l-17 -52 -589 0 -589 0 0 60 0 60 80 0 c96 0 143 17 164 59 20
37 20 62 2 106 -22 51 -59 65 -169 65 -105 0 -101 -3 -112 74 l-7 46 225 0
c124 0 237 4 251 10 26 10 42 29 210 269 l100 141 218 0 218 0 47 -34 c114
-81 219 -108 343 -89 325 51 494 413 324 695 -92 151 -271 236 -442 209 -149
-23 -272 -105 -344 -231 -32 -54 -58 -151 -58 -214 l0 -46 -207 0 c-178 0
-213 -3 -243 -18 -37 -18 -93 -88 -208 -256 -37 -55 -78 -111 -92 -126 l-25
-26 -196 -3 c-181 -2 -197 -1 -203 16 -4 9 -4 19 1 20 45 15 177 102 189 125
30 57 4 132 -55 163 -53 27 -100 16 -176 -40 -16 -12 -42 -30 -56 -39 l-26
-16 -36 55 c-21 30 -37 57 -37 59 0 3 80 69 178 147 97 78 200 163 227 189 28
26 70 58 95 70 56 28 153 105 207 163 45 48 63 107 63 201 l0 53 85 82 85 81
103 0 c97 0 108 2 167 32 82 41 181 138 198 194 15 51 16 324 1 377 -15 54
-84 122 -139 137 -131 35 -260 -61 -260 -196 0 -57 10 -80 59 -136 77 -87 51
-118 -98 -118 -81 0 -109 -4 -139 -19 -60 -32 -324 -253 -346 -291 -15 -26
-21 -57 -24 -130 -3 -70 -9 -100 -21 -114 -20 -22 -76 -51 -117 -60 -19 -4
-57 -33 -105 -82 -72 -74 -369 -342 -394 -356 -7 -5 -24 7 -42 30 l-31 38 124
112 124 113 0 119 c0 65 4 129 9 142 5 14 28 32 57 46 49 22 404 313 434 355
11 17 16 57 18 169 l4 147 46 6 c26 4 55 9 66 12 28 8 206 193 223 232 53 125
-41 271 -174 271 -97 0 -140 -29 -220 -153 -32 -48 -56 -73 -86 -88 -129 -65
-141 -89 -147 -299 l-5 -165 -85 -68 c-88 -70 -264 -204 -359 -272 -73 -53
-81 -76 -81 -239 l0 -134 -77 -70 -78 -69 -57 39 -58 40 0 106 c0 90 3 112 20
137 19 29 20 48 20 408 0 308 3 383 14 405 8 15 50 62 94 105 l79 79 58 -11
c79 -15 120 -14 190 4 193 50 326 191 357 381 28 165 -51 344 -197 444 -76 53
-156 72 -275 68 -96 -3 -111 -6 -180 -39 -96 -46 -162 -112 -206 -204 -63
-131 -66 -267 -8 -394 14 -33 25 -64 23 -70 -2 -5 -36 -43 -75 -83 -39 -40
-92 -97 -117 -126 l-47 -53 0 -510 c0 -405 -3 -510 -12 -507 -7 3 -50 18 -95
34 l-83 29 0 93 c0 107 -13 143 -61 162 -99 41 -169 -19 -169 -146 l0 -57 -46
7 c-26 3 -57 6 -70 6 l-24 0 0 633 0 632 58 30 c219 113 308 387 198 610 -92
187 -285 283 -491 243z m163 -338 c61 -37 79 -122 39 -181 -28 -42 -60 -59
-114 -59 -67 0 -133 69 -133 138 0 35 37 92 70 109 37 19 101 16 138 -7z
m-1347 -285 c85 -45 92 -188 11 -228 -52 -27 -81 -28 -128 -8 -36 16 -49 29
-65 66 -14 31 -18 56 -14 73 22 90 118 137 196 97z m2677 -5 c39 -24 72 -75
72 -112 0 -15 -7 -43 -16 -61 -43 -89 -187 -93 -238 -7 -19 33 -21 95 -3 130
32 63 122 88 185 50z m-988 -1958 c67 -54 89 -144 54 -218 -76 -160 -324 -95
-324 84 0 137 164 218 270 134z m-843 -137 c215 -98 263 -387 91 -551 -66 -64
-120 -87 -213 -92 -66 -3 -91 0 -140 19 -117 44 -206 161 -221 291 -13 115 56
253 160 317 88 55 224 61 323 16z m-2846 -11 c109 -104 -6 -280 -143 -218 -52
23 -78 65 -78 126 0 36 6 54 27 78 34 41 58 51 116 46 36 -2 55 -10 78 -32z
m6690 21 c67 -35 90 -131 46 -196 -46 -68 -142 -76 -203 -15 -109 109 19 282
157 211z m-2306 -329 c73 -33 149 -113 176 -185 31 -83 24 -206 -16 -279 -35
-65 -92 -122 -153 -153 -40 -20 -61 -24 -142 -24 -81 0 -102 4 -140 24 -83 43
-127 88 -165 164 -30 61 -36 83 -36 142 -2 251 249 415 476 311z m-915 -248
c112 -57 131 -193 39 -280 -68 -65 -165 -62 -234 8 -83 82 -63 212 40 271 51
29 99 29 155 1z m-1340 -379 c265 -124 261 -492 -7 -611 -62 -28 -177 -30
-248 -5 -103 35 -193 144 -213 257 -29 160 70 327 223 377 64 21 180 12 245
-18z m745 -168 c98 -45 132 -144 83 -241 -26 -52 -90 -90 -148 -90 -124 1
-211 131 -162 242 41 93 137 131 227 89z m1410 -152 c112 -21 200 -86 251
-186 26 -52 29 -68 29 -148 0 -111 -25 -173 -95 -239 -80 -75 -120 -91 -230
-91 -84 0 -102 3 -152 28 -115 56 -190 178 -191 307 0 163 116 302 274 329 30
5 54 9 55 10 0 0 27 -4 59 -10z m-4429 -24 c35 -23 64 -74 64 -113 0 -129
-153 -184 -239 -86 -25 28 -31 43 -31 82 0 113 113 178 206 117z m6948 11
c136 -57 96 -256 -51 -256 -58 0 -99 25 -123 75 -25 52 -25 81 0 123 39 64
106 86 174 58z m-3323 -130 c105 -70 102 -228 -5 -291 -118 -69 -266 14 -266
150 0 138 154 218 271 141z m-494 -568 c80 -29 162 -112 192 -193 31 -82 26
-197 -11 -270 -35 -67 -100 -128 -171 -161 -53 -24 -68 -26 -145 -22 -105 5
-170 35 -237 110 -156 174 -87 465 128 539 73 26 172 24 244 -3z m-763 -49
c48 -32 76 -86 76 -143 0 -54 -16 -90 -57 -127 -96 -90 -262 -24 -280 110 -11
78 38 154 117 185 32 12 110 -1 144 -25z m1560 -303 c47 -35 66 -74 66 -131 0
-128 -119 -206 -236 -156 -135 58 -140 247 -9 307 49 23 136 13 179 -20z
m-3808 -242 c37 -18 74 -76 74 -117 0 -99 -104 -165 -189 -120 -52 27 -76 66
-75 121 1 105 94 161 190 116z m6697 2 c52 -22 70 -50 75 -114 4 -51 1 -62
-22 -89 -69 -81 -196 -59 -230 41 -39 113 66 209 177 162z m-4680 -1881 c76
-36 102 -143 51 -204 -97 -116 -287 -5 -226 132 21 48 39 65 79 77 42 13 62
12 96 -5z m2670 1 c49 -21 79 -59 84 -109 12 -105 -83 -172 -185 -132 -106 43
-111 189 -9 236 50 22 68 23 110 5z"/>
<path d="M4536 6180 c-110 -34 -124 -186 -21 -234 42 -20 68 -20 112 1 86 40
99 160 23 214 -32 22 -77 30 -114 19z"/>
<path d="M6048 5842 c-55 -33 -73 -112 -39 -168 43 -71 137 -80 197 -20 57 57
57 115 -1 173 -28 28 -40 33 -81 33 -28 0 -61 -8 -76 -18z"/>
<path d="M3799 5225 c-38 -20 -61 -62 -61 -106 1 -65 30 -102 93 -119 78 -21
159 40 159 120 0 93 -106 151 -191 105z"/>
<path d="M6038 4874 c-60 -32 -78 -129 -33 -182 53 -63 133 -66 192 -7 27 27
33 41 33 74 0 81 -49 131 -127 131 -21 -1 -50 -7 -65 -16z"/>
<path d="M4668 4184 c-78 -42 -76 -178 2 -219 57 -30 127 -13 169 41 26 33 28
104 5 140 -34 51 -119 70 -176 38z"/>
<path d="M1947 7286 c-51 -19 -73 -40 -92 -91 -42 -110 57 -217 172 -186 74
20 122 94 108 167 -8 46 -58 101 -103 114 -44 12 -38 12 -85 -4z"/>
<path d="M8210 7273 c-35 -24 -48 -43 -60 -85 -22 -77 29 -167 101 -183 71
-16 168 42 185 110 15 59 -19 131 -76 160 -39 20 -119 19 -150 -2z"/>
<path d="M2510 6719 c-120 -48 -130 -219 -16 -273 45 -21 81 -20 132 5 55 26
84 72 84 131 0 103 -105 174 -200 137z"/>
<path d="M7654 6716 c-90 -40 -112 -170 -40 -242 44 -44 94 -53 154 -28 61 25
92 71 92 134 0 108 -107 179 -206 136z"/>
<path d="M3131 3618 c-63 -32 -85 -66 -85 -132 -1 -86 60 -152 139 -150 82 2
145 59 152 141 4 39 0 55 -19 82 -51 75 -116 96 -187 59z"/>
<path d="M7004 3611 c-39 -23 -64 -76 -64 -133 0 -131 151 -189 246 -94 60 60
55 157 -11 215 -30 26 -44 31 -88 31 -33 0 -63 -7 -83 -19z"/>
<path d="M2495 3394 c-80 -41 -122 -124 -106 -211 11 -56 34 -88 96 -133 86
-61 125 -104 125 -137 0 -41 -25 -70 -130 -148 -112 -83 -143 -131 -143 -215
0 -140 130 -234 256 -186 57 22 93 60 122 132 21 53 31 64 99 112 112 78 116
89 116 312 0 116 -4 189 -11 203 -7 12 -39 52 -73 88 -33 36 -81 89 -105 118
-24 29 -59 60 -77 67 -44 19 -132 18 -169 -2z"/>
<path d="M7601 3389 c-25 -13 -54 -39 -70 -63 -14 -22 -61 -74 -103 -117 -91
-92 -91 -91 -86 -331 3 -163 3 -165 31 -202 16 -20 52 -50 80 -66 78 -45 87
-54 108 -111 28 -74 56 -108 103 -130 57 -26 103 -24 167 9 45 22 59 36 82 81
30 60 33 93 16 152 -16 53 -49 89 -159 172 -145 110 -146 143 -10 241 101 73
130 116 130 194 0 65 -27 121 -76 159 -51 39 -149 44 -213 12z"/>
<path d="M1966 2940 c-102 -66 -79 -230 36 -261 83 -22 165 26 187 109 10 36
9 48 -8 87 -12 27 -33 52 -53 65 -44 27 -122 27 -162 0z"/>
<path d="M8135 2929 c-130 -115 0 -319 155 -241 77 38 105 142 57 213 -30 44
-60 59 -124 59 -44 0 -58 -5 -88 -31z"/>
<path d="M3315 2906 c-75 -34 -116 -119 -94 -199 14 -55 84 -123 135 -133 110
-20 221 89 200 199 -20 107 -145 176 -241 133z"/>
<path d="M3105 2560 c-58 -8 -109 -43 -153 -106 -21 -30 -66 -74 -99 -99 -74
-55 -111 -107 -119 -166 -21 -152 122 -271 258 -215 40 17 93 70 146 146 22
33 61 70 95 93 76 50 97 85 97 162 0 48 -5 68 -25 97 -44 65 -122 99 -200 88z"/>
<path d="M7076 2558 c-59 -16 -112 -75 -127 -142 -10 -48 -10 -61 5 -100 18
-46 61 -91 102 -106 13 -5 38 -30 56 -55 123 -172 146 -190 237 -190 57 0 74
4 110 28 45 30 91 109 91 156 0 70 -48 148 -124 202 -23 16 -68 61 -101 100
-85 101 -157 132 -249 107z"/>
<path d="M5100 2180 c-19 -5 -47 -22 -62 -39 -25 -28 -28 -39 -28 -101 l0 -69
-46 -20 c-116 -52 -208 -152 -245 -270 -30 -93 -30 -225 0 -303 48 -125 159
-232 283 -274 69 -24 203 -24 279 -1 125 37 240 147 290 275 29 73 32 211 7
292 -35 112 -126 218 -234 271 l-64 32 0 59 c0 77 -20 114 -73 139 -46 20 -55
21 -107 9z m107 -527 c66 -31 93 -116 57 -184 -20 -40 -93 -73 -139 -65 -62
12 -115 75 -115 138 0 37 34 90 71 110 42 22 81 23 126 1z"/>
</g>
</svg>
